<?xml version="1.0" standalone="no"?>
<!DOCTYPE svg PUBLIC "-//W3C//DTD SVG 20010904//EN"
 "http://www.w3.org/TR/2001/REC-SVG-20010904/DTD/svg10.dtd">
<svg version="1.0" xmlns="http://www.w3.org/2000/svg"
 width="512.000000pt" height="512.000000pt" viewBox="0 0 512.000000 512.000000"
 preserveAspectRatio="xMidYMid meet">
<metadata>
Created by potrace 1.14, written by Peter Selinger 2001-2017
</metadata>
<g transform="translate(0.000000,512.000000) scale(0.100000,-0.100000)"
fill="#000000" stroke="none">
<path d="M1589 5053 c-1 -5 -3 -29 -4 -54 -3 -62 -29 -139 -78 -229 -22 -41
-57 -106 -77 -145 -43 -84 -107 -188 -165 -270 -123 -174 -158 -373 -92 -517
15 -31 27 -60 27 -63 0 -16 84 -127 108 -142 15 -9 37 -26 49 -37 36 -34 46
-40 103 -63 74 -29 177 -45 283 -44 69 1 95 -3 126 -19 41 -21 81 -67 81 -94
0 -12 10 -16 34 -16 41 0 50 19 41 77 l-6 38 35 -37 c21 -22 41 -57 50 -89 27
-89 55 -115 95 -90 13 8 17 40 20 146 1 29 3 28 75 -47 60 -63 80 -78 104 -78
32 0 55 20 48 41 -3 8 -7 37 -10 66 -3 44 -1 52 15 56 11 3 19 14 19 26 0 12
5 21 10 21 40 0 -42 78 -98 92 -25 7 -44 -19 -42 -55 1 -12 2 -25 1 -28 -1 -4
-23 16 -50 42 -43 43 -55 49 -91 49 -37 0 -42 -3 -55 -34 -15 -36 -35 -56 -35
-36 0 22 -129 177 -147 177 -29 0 -40 -15 -47 -60 l-7 -42 -107 2 c-135 4
-215 24 -265 66 -32 27 -39 41 -47 92 -22 136 -4 318 40 405 10 19 43 63 73
97 128 143 197 276 197 379 0 41 -25 125 -59 199 -10 22 -33 79 -51 127 -24
65 -37 88 -53 92 -30 8 -47 7 -48 -1z"/>
<path d="M2101 4999 c-21 -8 -23 -14 -19 -62 3 -28 15 -75 27 -104 34 -78 72
-93 227 -93 128 0 202 -15 245 -49 26 -20 95 -26 105 -10 12 20 -19 78 -57
109 -48 38 -157 79 -212 80 -21 0 -57 4 -80 9 -23 6 -54 12 -68 15 -30 6 -55
27 -93 79 -30 39 -37 41 -75 26z"/>
<path d="M2416 4991 c-17 -19 -17 -21 5 -50 13 -17 26 -31 29 -31 4 0 26 -13
51 -29 24 -16 60 -32 79 -36 150 -30 292 -99 385 -186 17 -16 66 -59 110 -97
106 -91 273 -270 308 -330 38 -66 78 -197 79 -262 4 -173 -45 -301 -140 -369
-49 -36 -136 -81 -156 -81 -21 0 -48 -43 -40 -64 3 -9 0 -23 -7 -32 -11 -14
-10 -18 6 -31 24 -18 171 -13 220 7 82 34 86 37 189 132 63 59 123 156 152
246 9 26 18 100 21 164 9 180 -10 234 -153 448 -98 147 -203 260 -296 319 -37
24 -69 49 -72 57 -3 8 -14 14 -25 14 -11 0 -35 6 -53 14 -18 8 -76 29 -128 45
-52 17 -164 54 -249 81 -85 28 -162 50 -171 50 -10 0 -37 9 -61 20 -55 24 -62
25 -83 1z"/>
<path d="M1826 4964 c-8 -8 -19 -14 -25 -14 -15 0 -14 -94 3 -155 15 -58 62
-155 75 -155 5 0 19 -16 32 -35 13 -19 30 -35 37 -35 7 0 29 -12 47 -26 25
-19 53 -28 107 -35 70 -8 103 -15 233 -44 33 -8 125 -16 205 -19 84 -2 160
-10 180 -17 90 -34 171 -129 190 -224 22 -108 -7 -316 -55 -395 -11 -19 -26
-47 -32 -61 -17 -40 -69 -95 -103 -109 -23 -10 -30 -19 -30 -40 0 -27 -25 -59
-36 -47 -5 5 -17 51 -30 111 -2 11 -16 37 -31 58 -16 22 -37 55 -49 75 -12 20
-40 50 -64 67 -40 30 -46 31 -138 30 -54 -1 -115 -2 -137 -2 -30 -2 -48 5 -74
26 -62 50 -75 76 -79 155 -4 80 20 164 62 215 50 59 50 67 7 111 -40 41 -41
41 -104 37 -36 -2 -83 -13 -108 -25 -134 -63 -249 -255 -249 -414 0 -49 5 -66
25 -93 34 -45 103 -91 148 -99 21 -4 40 -11 42 -15 18 -29 255 -65 365 -56
158 13 204 -6 276 -114 38 -58 54 -105 54 -163 0 -25 5 -57 11 -71 12 -25 56
-44 70 -29 4 4 9 38 11 75 2 38 5 68 8 68 3 0 33 -10 65 -22 79 -28 155 -28
236 2 35 13 75 31 89 39 120 76 185 213 196 415 5 101 3 117 -19 182 -14 39
-41 93 -62 120 -34 45 -247 254 -258 254 -3 0 -27 13 -54 29 -80 50 -241 108
-333 121 -47 7 -112 18 -145 26 -33 7 -76 16 -95 18 -96 13 -241 60 -295 97
-39 27 -92 103 -105 151 -11 40 -42 55 -64 32z"/>
<path d="M2447 4335 c-10 -9 -17 -20 -17 -25 0 -13 30 -40 45 -40 22 0 107
-48 139 -78 57 -54 103 -192 85 -253 -15 -52 -3 -104 28 -118 33 -15 45 -5 78
66 80 175 74 269 -23 359 -82 77 -130 98 -233 102 -70 3 -89 1 -102 -13z"/>
<path d="M2983 2938 c-50 -7 -190 -74 -224 -107 -9 -9 -32 -37 -52 -63 -88
-117 -139 -434 -88 -543 5 -11 13 -33 17 -50 4 -16 8 -32 9 -35 9 -36 26 -66
68 -125 57 -78 76 -97 127 -121 19 -9 55 -26 80 -38 94 -45 225 -68 355 -60
116 7 118 7 242 60 81 34 151 133 208 295 21 60 27 97 30 199 5 127 -1 168
-37 270 -32 92 -76 148 -163 211 -77 56 -157 90 -245 106 -45 8 -274 9 -327 1z
m358 -186 c80 -36 141 -112 209 -262 4 -9 8 -65 9 -125 2 -127 -17 -204 -69
-285 -77 -119 -152 -154 -318 -148 -168 7 -246 54 -333 203 -58 99 -62 115
-57 222 4 87 8 106 37 163 40 78 100 167 133 197 13 12 50 29 83 37 33 8 69
17 80 20 45 11 182 -2 226 -22z"/>
<path d="M3197 2654 c-17 -17 -3 -34 62 -72 59 -36 71 -48 90 -91 11 -27 21
-70 21 -95 0 -41 3 -46 26 -52 36 -9 44 4 49 76 8 100 -29 195 -84 220 -29 13
-154 24 -164 14z"/>
<path d="M3310 2104 c-19 -13 -45 -23 -56 -23 -12 -1 -27 -7 -33 -15 -10 -11
-8 -17 9 -29 14 -10 18 -17 10 -22 -18 -11 19 -45 50 -45 33 0 71 29 100 76
l22 35 -21 23 c-27 28 -38 28 -81 0z"/>
<path d="M2060 2530 c-103 -5 -230 -28 -285 -51 -11 -5 -78 -31 -149 -59 -72
-28 -141 -60 -154 -73 -37 -33 -82 -98 -82 -117 0 -13 36 -40 54 -40 2 0 18
22 35 48 27 43 56 65 124 94 16 7 17 4 11 -30 -9 -47 -9 -80 0 -115 4 -19 3
-27 -7 -27 -8 0 -22 -9 -33 -21 -30 -33 -8 -51 92 -76 71 -18 117 -22 224 -22
143 1 213 14 218 41 4 19 -24 30 -75 30 -32 0 -33 1 -19 17 24 26 46 98 46
149 0 32 -9 61 -30 98 l-29 53 22 3 c12 2 38 -4 57 -13 56 -27 159 -127 186
-181 30 -59 57 -88 84 -88 40 0 19 52 -62 155 -26 33 -53 65 -60 70 -7 6 -30
23 -51 38 -48 37 -47 48 6 41 34 -5 45 -2 60 14 17 19 17 20 -13 46 -17 14
-37 25 -43 24 -7 -1 -64 -4 -127 -8z m-140 -175 c0 -32 -22 -55 -55 -58 -26
-2 -30 2 -33 27 -3 20 4 36 24 57 26 27 29 28 46 12 10 -9 18 -26 18 -38z m28
-125 c-10 -30 -28 -36 -35 -13 -4 12 23 43 37 43 5 0 4 -14 -2 -30z"/>
<path d="M2770 1639 c-30 -3 -64 -9 -75 -14 -40 -17 -125 -88 -146 -121 -11
-19 -23 -34 -26 -34 -3 0 -33 24 -66 54 -91 79 -115 88 -221 89 -98 1 -129
-11 -171 -62 -11 -13 -44 -51 -72 -85 -29 -33 -53 -64 -53 -68 0 -16 -97 -72
-173 -100 -57 -21 -102 -31 -147 -32 -79 -1 -87 -17 -40 -76 119 -150 225
-195 460 -195 105 0 120 2 170 27 140 69 196 106 243 164 79 97 65 95 154 19
43 -37 97 -76 120 -86 24 -10 56 -28 72 -40 16 -11 46 -22 67 -24 22 -2 71 -6
111 -9 91 -8 222 8 322 39 61 19 88 35 123 69 50 48 87 117 95 174 4 32 1 38
-20 48 -19 9 -28 7 -47 -8 -47 -38 -217 -12 -308 48 -53 35 -172 150 -172 166
0 9 -76 45 -120 57 -14 4 -50 4 -80 0z"/>
<path d="M2688 1024 c-21 -8 -52 -21 -70 -30 -21 -11 -52 -16 -97 -14 -36 1
-79 1 -96 1 -16 0 -63 6 -103 14 -82 17 -130 10 -176 -26 -43 -34 -50 -57 -47
-159 2 -83 6 -104 36 -174 35 -79 85 -165 115 -195 9 -9 28 -32 42 -52 53 -72
182 -201 222 -221 22 -11 46 -27 54 -35 9 -9 30 -13 61 -11 l46 3 38 74 c21
40 65 110 99 154 38 50 81 124 111 192 45 99 50 119 55 200 2 51 -1 108 -7
131 -14 53 -62 114 -109 138 -45 23 -124 28 -174 10z"/>
</g>
</svg>
