<svg viewBox="0 0 395.52 28.98661921708185" height="28.98661921708185">
  <g transform="matrix(1,0,0,1,0,0)">
    <svg viewBox="4.349999904632568 -32.5 451.7699890136719 32.95000076293945" data-palette-color="#4a596d">
      <g class="undefined-text-0" data-fill-palette-color="primary" id="text-0">
        <path
          d="M9.55-32.1L9.3-10.1 9.5 0 4.35 0 4.6-9.65 4.35-32.1 9.55-32.1ZM27.4-32.1L15.05-17Q20.85-9.2 28.3-1.1L28.3-1.1 28.25-0.5Q26.05 0.1 23.3 0.45L23.3 0.45 22.65 0.15Q15.05-9.15 9.75-16.75L9.75-16.75 9.75-17.1 19.75-29.2 21.75-32.1 27.4-32.1ZM44.55-32.5Q51.2-32.5 54.8-28.4 58.4-24.3 58.4-16.7L58.4-16.7Q58.4-8.5 54.55-4.03 50.7 0.45 43.6 0.45L43.6 0.45Q37 0.45 33.42-3.78 29.85-8 29.85-15.75L29.85-15.75Q29.85-23.8 33.67-28.15 37.5-32.5 44.55-32.5L44.55-32.5ZM44.15-28.3Q39.6-28.3 37.37-25.38 35.15-22.45 35.15-16.35L35.15-16.35Q35.15-9.7 37.32-6.63 39.5-3.55 44.05-3.55L44.05-3.55Q48.65-3.55 50.85-6.5 53.05-9.45 53.05-15.7L53.05-15.7Q53.05-22.25 50.87-25.28 48.7-28.3 44.15-28.3L44.15-28.3ZM90.2-32.2L89.9-9.6 90.05 0 84.5 0 69.4-24.05 69.05-24.05 69-10.75 69.15 0 64.45 0 64.7-9.5 64.5-32.1 69.95-32.1 85.09-8.05 85.5-8.05 85.4-31.85 90.2-32.2ZM108.19-32.45Q111.99-32.45 115.79-30.85L115.79-30.85 114.94-26.15 114.14-25.85Q112.54-27 110.84-27.65 109.14-28.3 107.59-28.3L107.59-28.3Q105.14-28.3 103.69-26.95 102.24-25.6 102.24-23.8L102.24-23.8Q102.24-22.05 103.69-20.93 105.14-19.8 108.24-18.35L108.24-18.35Q110.94-17.05 112.62-16 114.29-14.95 115.49-13.23 116.69-11.5 116.69-9.1L116.69-9.1Q116.69-6.5 115.27-4.33 113.84-2.15 111.27-0.88 108.69 0.4 105.39 0.4L105.39 0.4Q103.19 0.4 100.84-0.15 98.49-0.7 96.39-1.75L96.39-1.75 97.04-6.85 97.69-7.15Q99.54-5.4 101.77-4.53 103.99-3.65 105.89-3.65L105.89-3.65Q108.49-3.65 110.04-5.03 111.59-6.4 111.59-8.3L111.59-8.3Q111.59-10.2 110.09-11.38 108.59-12.55 105.49-14L105.49-14Q102.84-15.25 101.19-16.28 99.54-17.3 98.37-19 97.19-20.7 97.19-23.1L97.19-23.1Q97.19-25.7 98.59-27.85 99.99-30 102.49-31.23 104.99-32.45 108.19-32.45L108.19-32.45ZM142.19-32.1L142.49-31.65 142.19-27.75 136.39-28.05 133.69-28.05 133.44-10.1 133.69 0 128.49 0 128.79-9.65 128.54-28.05 125.84-28.05 119.94-27.75 119.59-28.2 119.99-32.1 142.19-32.1ZM161.44-32.1L171.79 0 166.49 0 165.74-3.6 164.34-8.05 157.54-8.2 151.39-8.05 149.89-3.85 149.09 0 143.94 0 155.39-32.1 161.44-32.1ZM157.89-12.15L163.04-12.25 158.44-27.05 158.09-27.05 152.84-12.25 157.89-12.15ZM202.84-32.2L202.54-9.6 202.69 0 197.14 0 182.04-24.05 181.69-24.05 181.64-10.75 181.79 0 177.09 0 177.34-9.5 177.14-32.1 182.59-32.1 197.74-8.05 198.14-8.05 198.04-31.85 202.84-32.2ZM230.68-32.1L230.98-31.65 230.68-27.75 224.88-28.05 222.18-28.05 221.93-10.1 222.18 0 216.98 0 217.28-9.65 217.03-28.05 214.33-28.05 208.43-27.75 208.08-28.2 208.48-32.1 230.68-32.1ZM241.48-32.1L241.18-10.1 241.43 0 236.18 0 236.53-9.65 236.18-32.1 241.48-32.1ZM275.93-32.2L275.63-9.6 275.78 0 270.23 0 255.13-24.05 254.78-24.05 254.73-10.75 254.88 0 250.18 0 250.43-9.5 250.23-32.1 255.68-32.1 270.83-8.05 271.23-8.05 271.13-31.85 275.93-32.2Z"
          fill="#4a596d" data-fill-palette-color="primary"></path>
        <path
          d="M289.63-32.45Q293.43-32.45 297.23-30.85L297.23-30.85 296.38-26.15 295.58-25.85Q293.98-27 292.28-27.65 290.58-28.3 289.03-28.3L289.03-28.3Q286.58-28.3 285.13-26.95 283.68-25.6 283.68-23.8L283.68-23.8Q283.68-22.05 285.13-20.93 286.58-19.8 289.68-18.35L289.68-18.35Q292.38-17.05 294.06-16 295.73-14.95 296.93-13.23 298.13-11.5 298.13-9.1L298.13-9.1Q298.13-6.5 296.71-4.33 295.28-2.15 292.71-0.88 290.13 0.4 286.83 0.4L286.83 0.4Q284.63 0.4 282.28-0.15 279.93-0.7 277.83-1.75L277.83-1.75 278.48-6.85 279.13-7.15Q280.98-5.4 283.21-4.53 285.43-3.65 287.33-3.65L287.33-3.65Q289.93-3.65 291.48-5.03 293.03-6.4 293.03-8.3L293.03-8.3Q293.03-10.2 291.53-11.38 290.03-12.55 286.93-14L286.93-14Q284.28-15.25 282.63-16.28 280.98-17.3 279.81-19 278.63-20.7 278.63-23.1L278.63-23.1Q278.63-25.7 280.03-27.85 281.43-30 283.93-31.23 286.43-32.45 289.63-32.45L289.63-32.45ZM318.13-32.1L328.48 0 323.18 0 322.43-3.6 321.03-8.05 314.23-8.2 308.08-8.05 306.58-3.85 305.78 0 300.63 0 312.08-32.1 318.13-32.1ZM314.58-12.15L319.73-12.25 315.13-27.05 314.78-27.05 309.53-12.25 314.58-12.15ZM357.88-32.1L346.52 0 340.43 0 330.03-32.1 335.33-32.1 336.08-28.45 343.43-5 343.77-5 351.93-28.2 352.73-32.1 357.88-32.1ZM386.22-32.1L386.07-15.8 386.02-12Q386.12-6.1 382.82-2.85 379.52 0.4 373.47 0.4L373.47 0.4Q367.62 0.4 364.52-2.73 361.42-5.85 361.52-11.6L361.52-11.6 361.62-16.05 361.52-32.1 366.62-32.1 366.42-12.3Q366.37-8.1 368.22-6.05 370.07-4 373.82-4L373.82-4Q381.32-4 381.27-11.8L381.27-11.8 381.02-32.1 386.22-32.1ZM403.32-32.45Q407.12-32.45 410.92-30.85L410.92-30.85 410.07-26.15 409.27-25.85Q407.67-27 405.97-27.65 404.27-28.3 402.72-28.3L402.72-28.3Q400.27-28.3 398.82-26.95 397.37-25.6 397.37-23.8L397.37-23.8Q397.37-22.05 398.82-20.93 400.27-19.8 403.37-18.35L403.37-18.35Q406.07-17.05 407.74-16 409.42-14.95 410.62-13.23 411.82-11.5 411.82-9.1L411.82-9.1Q411.82-6.5 410.4-4.33 408.97-2.15 406.4-0.88 403.82 0.4 400.52 0.4L400.52 0.4Q398.32 0.4 395.97-0.15 393.62-0.7 391.52-1.75L391.52-1.75 392.17-6.85 392.82-7.15Q394.67-5.4 396.9-4.53 399.12-3.65 401.02-3.65L401.02-3.65Q403.62-3.65 405.17-5.03 406.72-6.4 406.72-8.3L406.72-8.3Q406.72-10.2 405.22-11.38 403.72-12.55 400.62-14L400.62-14Q397.97-15.25 396.32-16.28 394.67-17.3 393.5-19 392.32-20.7 392.32-23.1L392.32-23.1Q392.32-25.7 393.72-27.85 395.12-30 397.62-31.23 400.12-32.45 403.32-32.45L403.32-32.45ZM423.37-32.1L423.07-10.1 423.32 0 418.07 0 418.42-9.65 418.07-32.1 423.37-32.1ZM445.77-32.1L456.12 0 450.81 0 450.06-3.6 448.67-8.05 441.87-8.2 435.71-8.05 434.21-3.85 433.41 0 428.27 0 439.71-32.1 445.77-32.1ZM442.21-12.15L447.37-12.25 442.77-27.05 442.41-27.05 437.16-12.25 442.21-12.15Z"
          fill="#aab7c0" data-fill-palette-color="secondary"></path>
      </g>
    </svg>
  </g>
</svg>